HIERARCHY
ROOT joint_0
{
	OFFSET 0.000000 0.000000 0.000000
	CHANNELS 6 Xposition Yposition Zposition Zrotation Yrotation Xrotation 
	JOINT joint_1
	{
		OFFSET 6.579712 -2.778931 100.531982
		CHANNELS 3 Zrotation Yrotation Xrotation
		JOINT joint_2
		{
			OFFSET -3.313232 -1.302856 91.974976
			CHANNELS 3 Zrotation Yrotation Xrotation
			JOINT joint_3
			{
				OFFSET -3.421509 -1.641846 91.864014
				CHANNELS 3 Zrotation Yrotation Xrotation
				JOINT joint_4
				{
					OFFSET 7.697388 -4.642578 123.278931
					CHANNELS 3 Zrotation Yrotation Xrotation
					JOINT joint_5
					{
						OFFSET 24.842529 -5.941528 79.695068
						CHANNELS 3 Zrotation Yrotation Xrotation
						End Site
						{
							OFFSET 0.000000 0.000000 0.000000
						}
					}
				}
				JOINT joint_6
				{
					OFFSET -0.159668 -29.112976 68.364014
					CHANNELS 3 Zrotation Yrotation Xrotation
					JOINT joint_7
					{
						OFFSET -18.356079 -115.987061 -20.069092
						CHANNELS 3 Zrotation Yrotation Xrotation
						JOINT joint_8
						{
							OFFSET 31.719482 -11.733276 -267.170898
							CHANNELS 3 Zrotation Yrotation Xrotation
							JOINT joint_9
							{
								OFFSET 29.329956 -5.879517 -234.654053
								CHANNELS 3 Zrotation Yrotation Xrotation
								End Site
								{
									OFFSET 0.000000 0.000000 0.000000
								}
							}
						}
					}
				}
				JOINT joint_10
				{
					OFFSET 8.802979 23.897949 69.798950
					CHANNELS 3 Zrotation Yrotation Xrotation
					JOINT joint_11
					{
						OFFSET 21.159058 115.524292 -19.981934
						CHANNELS 3 Zrotation Yrotation Xrotation
						JOINT joint_12
						{
							OFFSET 18.809204 5.403442 -268.593018
							CHANNELS 3 Zrotation Yrotation Xrotation
							JOINT joint_13
							{
								OFFSET 20.807861 0.421265 -235.639038
								CHANNELS 3 Zrotation Yrotation Xrotation
								End Site
								{
									OFFSET 0.000000 0.000000 0.000000
								}
							}
						}
					}
				}
			}
		}
	}
	JOINT joint_14
	{
		OFFSET -9.713379 -79.513916 -99.348022
		CHANNELS 3 Zrotation Yrotation Xrotation
		JOINT joint_15
		{
			OFFSET -40.607788 -6.518372 -502.938019
			CHANNELS 3 Zrotation Yrotation Xrotation
			JOINT joint_16
			{
				OFFSET -19.807617 -7.437378 -399.590012
				CHANNELS 3 Zrotation Yrotation Xrotation
				JOINT joint_17
				{
					OFFSET 171.701660 -44.751282 -77.782000
					CHANNELS 3 Zrotation Yrotation Xrotation
					End Site
					{
						OFFSET 0.000000 0.000000 0.000000
					}
				}
			}
		}
	}
	JOINT joint_18
	{
		OFFSET 17.854858 79.618652 -98.128052
		CHANNELS 3 Zrotation Yrotation Xrotation
		JOINT joint_19
		{
			OFFSET -24.848877 16.861816 -503.722992
			CHANNELS 3 Zrotation Yrotation Xrotation
			JOINT joint_20
			{
				OFFSET -30.162476 14.470093 -398.750008
				CHANNELS 3 Zrotation Yrotation Xrotation
				JOINT joint_21
				{
					OFFSET 176.096680 -10.987549 -80.021000
					CHANNELS 3 Zrotation Yrotation Xrotation
					End Site
					{
						OFFSET 0.000000 0.000000 0.000000
					}
				}
			}
		}
	}
}
MOTION
Frames: 9
Frame Time: 0.016667
-1796.111816 987.683899 1097.599976 44.118709 1.106312 0.380908 0.119782 -2.197414 -0.778219 0.206473 0.314422 0.148349 0.184515 -0.465304 -0.136637 -0.155118 0.774762 0.647945 0.000000 0.000000 0.000000 -0.968258 1.705360 0.222723 0.191839 1.641077 -0.091912 0.039525 -1.609762 -1.276311 0.000000 0.000000 0.000000 0.584721 0.151982 1.329693 -0.211983 0.562801 -1.479628 -0.060682 -0.153688 0.547778 0.000000 0.000000 0.000000 1.307396 -0.370217 -0.440948 1.250180 0.926168 0.410026 1.416266 -1.730135 0.196041 0.000000 0.000000 0.000000 -1.961268 0.458482 -0.044332 -1.923632 -0.450586 -0.406444 -1.871740 -0.821810 -0.903560 0.000000 0.000000 0.000000 
-1796.154053 987.693665 1097.599976 44.105612 1.103867 0.377443 0.119400 -2.201585 -0.780874 0.206590 0.317033 0.148136 0.184548 -0.467952 -0.136213 -0.153451 0.772637 0.642253 0.000000 0.000000 0.000000 -0.964220 1.705447 0.226796 0.194066 1.640729 -0.081594 0.041224 -1.619299 -1.273750 0.000000 0.000000 0.000000 0.583666 0.162755 1.326622 -0.217290 0.580792 -1.524540 -0.062232 -0.165665 0.550104 0.000000 0.000000 0.000000 1.311564 -0.373101 -0.440727 1.254304 0.931966 0.410989 1.420766 -1.729547 0.198253 0.000000 0.000000 0.000000 -1.956816 0.460299 -0.045879 -1.919454 -0.447508 -0.401094 -1.867694 -0.826678 -0.902016 0.000000 0.000000 0.000000 
-1796.207275 987.691589 1097.599976 44.096370 1.100904 0.373970 0.118572 -2.201136 -0.783775 0.206037 0.316006 0.148618 0.183988 -0.467805 -0.136804 -0.152354 0.770338 0.638408 0.000000 0.000000 0.000000 -0.958608 1.705007 0.231273 0.196263 1.639732 -0.068337 0.042441 -1.626300 -1.272107 0.000000 0.000000 0.000000 0.586263 0.171654 1.323827 -0.222954 0.596210 -1.569032 -0.064766 -0.180980 0.548912 0.000000 0.000000 0.000000 1.314537 -0.375667 -0.440142 1.257274 0.937077 0.411879 1.424094 -1.728828 0.199962 0.000000 0.000000 0.000000 -1.953750 0.460896 -0.046362 -1.916537 -0.443811 -0.397355 -1.865044 -0.830839 -0.901069 0.000000 0.000000 0.000000 
-1796.270752 987.673523 1097.600952 44.091580 1.098871 0.370844 0.118154 -2.199290 -0.788340 0.205906 0.315350 0.150154 0.183814 -0.466746 -0.137969 -0.151770 0.771185 0.636586 0.000000 0.000000 0.000000 -0.955195 1.704455 0.236550 0.198503 1.637825 -0.051687 0.043224 -1.631158 -1.271484 0.000000 0.000000 0.000000 0.588266 0.178443 1.320542 -0.229108 0.608979 -1.610875 -0.068704 -0.200365 0.541183 0.000000 0.000000 0.000000 1.316001 -0.379421 -0.439606 1.258789 0.940889 0.413147 1.425942 -1.726794 0.201335 0.000000 0.000000 0.000000 -1.951935 0.458135 -0.044882 -1.914612 -0.438633 -0.397619 -1.863821 -0.834132 -0.900724 0.000000 0.000000 0.000000 
-1796.345825 987.644287 1097.602051 44.090556 1.096332 0.367587 0.118001 -2.193414 -0.792273 0.205763 0.312322 0.150381 0.183773 -0.464336 -0.137852 -0.151534 0.773325 0.636043 0.000000 0.000000 0.000000 -0.952661 1.704025 0.240966 0.200705 1.635272 -0.031992 0.043525 -1.633221 -1.271510 0.000000 0.000000 0.000000 0.590571 0.183676 1.316137 -0.235640 0.619748 -1.651919 -0.073580 -0.222726 0.529709 0.000000 0.000000 0.000000 1.316444 -0.383102 -0.438737 1.259319 0.944437 0.414449 1.426825 -1.724508 0.202331 0.000000 0.000000 0.000000 -1.951430 0.454159 -0.042275 -1.913864 -0.432680 -0.399501 -1.863942 -0.837194 -0.900982 0.000000 0.000000 0.000000 
-1796.429443 987.614136 1097.603027 44.091290 1.093362 0.364140 0.117144 -2.188453 -0.794858 0.204983 0.311289 0.151362 0.183012 -0.462535 -0.138318 -0.151255 0.775922 0.635426 0.000000 0.000000 0.000000 -0.946432 1.704959 0.244286 0.203067 1.634556 -0.012824 0.044088 -1.636186 -1.270410 0.000000 0.000000 0.000000 0.595681 0.188248 1.311007 -0.241954 0.628162 -1.687124 -0.078899 -0.245835 0.515662 0.000000 0.000000 0.000000 1.316267 -0.386590 -0.437765 1.259245 0.948174 0.415641 1.427138 -1.722757 0.202927 0.000000 0.000000 0.000000 -1.951511 0.450640 -0.039796 -1.913739 -0.428035 -0.401209 -1.864474 -0.838782 -0.901337 0.000000 0.000000 0.000000 
-1796.520508 987.587463 1097.604004 44.093030 1.088964 0.359998 0.115764 -2.184163 -0.794852 0.203663 0.312072 0.151528 0.181677 -0.462880 -0.138221 -0.150683 0.777930 0.633788 0.000000 0.000000 0.000000 -0.935159 1.708489 0.246272 0.205638 1.637293 0.004566 0.045092 -1.640476 -1.267167 0.000000 0.000000 0.000000 0.603485 0.193203 1.303922 -0.247992 0.634420 -1.713229 -0.084875 -0.269495 0.496213 0.000000 0.000000 0.000000 1.315811 -0.389203 -0.436297 1.258865 0.953507 0.416910 1.427343 -1.723194 0.202904 0.000000 0.000000 0.000000 -1.951993 0.449312 -0.037545 -1.914077 -0.425475 -0.401701 -1.865086 -0.838703 -0.901628 0.000000 0.000000 0.000000 
-1796.620728 987.560547 1097.604004 44.096494 1.083435 0.355575 0.113741 -2.178661 -0.792161 0.201525 0.312049 0.150519 0.179605 -0.461751 -0.137853 -0.150254 0.779095 0.632493 0.000000 0.000000 0.000000 -0.920219 1.712833 0.246523 0.208246 1.641139 0.022055 0.046179 -1.644406 -1.262756 0.000000 0.000000 0.000000 0.613960 0.197060 1.296576 -0.253816 0.638079 -1.733925 -0.091372 -0.294128 0.473815 0.000000 0.000000 0.000000 1.314694 -0.390881 -0.434687 1.257812 0.959086 0.418082 1.426918 -1.724207 0.202443 0.000000 0.000000 0.000000 -1.953192 0.449428 -0.035482 -1.915175 -0.424659 -0.401704 -1.866193 -0.837788 -0.902094 0.000000 0.000000 0.000000 
-1796.734741 987.522949 1097.605957 44.101907 1.078384 0.352129 0.111308 -2.170284 -0.789422 0.198862 0.312427 0.150944 0.176969 -0.460738 -0.137519 -0.149291 0.781005 0.629373 0.000000 0.000000 0.000000 -0.905659 1.716140 0.246191 0.210346 1.644197 0.036923 0.047151 -1.647364 -1.258100 0.000000 0.000000 0.000000 0.624018 0.198270 1.288772 -0.258342 0.638241 -1.748878 -0.097088 -0.314360 0.452036 0.000000 0.000000 0.000000 1.313076 -0.393468 -0.434110 1.256278 0.963572 0.419105 1.425900 -1.724043 0.202017 0.000000 0.000000 0.000000 -1.954733 0.447322 -0.034171 -1.916663 -0.423113 -0.402578 -1.867776 -0.835458 -0.902693 0.000000 0.000000 0.000000 
